<svg xmlns="http://www.w3.org/2000/svg" width="362" height="362" fill="none" xmlns:v="https://vecta.io/nano"><path d="M101.662 32.886l25.581 44.307 25.581 44.307h-51.162H50.5l25.581-44.307 25.581-44.307z" stroke="#000"/><path d="M217.04 92l16.48-29.72m32.96 0L282.96 92m-49.44 29.72h32.96" stroke="#08ff00"/><path d="M200.561 62.28h32.96L250 32.561l16.48 29.72h32.96L282.96 92l16.48 29.72h-32.96L250 151.439l-16.48-29.72h-32.96L217.04 92l-16.48-29.72" stroke="#000"/><path d="M50.545 222.737h32.96l16.48-29.72 16.48 29.72h32.96l-16.48 29.72 16.48 29.72h-32.96l-16.48 29.72-16.48-29.72h-32.96l16.48-29.72-16.48-29.72" stroke="#04ff00"/><path d="M50.508 282.18l5.498-9.903-5.498-9.903h10.996l5.498-9.903-5.498-9.903H50.508l5.498-9.903-5.498-9.903h10.996l5.498-9.903 5.498 9.903h10.996l5.498-9.903-5.498-9.903h10.996l5.498-9.903 5.498 9.903h10.996l-5.498 9.903 5.498 9.903h10.996l5.498-9.903 5.498 9.903h10.996l-5.498 9.903 5.498 9.903h-10.996l-5.498 9.903 5.498 9.903h10.996l-5.498 9.903 5.498 9.903h-10.996l-5.498 9.903-5.498-9.903h-10.996l-5.498 9.903 5.498 9.903h-10.996l-5.498 9.903-5.498-9.903H83.495l5.498-9.903-5.498-9.903H72.5l-5.498 9.903-5.498-9.903H50.508" stroke="#000"/><path d="M200.55 282.317l5.498-9.921-5.498-9.921h10.995l5.498-9.921-5.498-9.921H200.55l5.498-9.921-5.498-9.921h10.995l5.498-9.921 5.498 9.921h10.995l5.498-9.921-5.498-9.921h10.995l5.498-9.921 5.498 9.921h10.995l-5.498 9.921 5.498 9.921h10.995l5.498-9.921 5.498 9.921h10.995l-5.498 9.921 5.498 9.921h-10.995l-5.498 9.921 5.498 9.921h10.995l-5.498 9.921 5.498 9.921h-10.995l-5.498 9.921-5.498-9.921h-10.995l-5.498 9.921 5.498 9.921h-10.995l-5.498 9.921-5.498-9.921h-10.995l5.498-9.921-5.498-9.921h-10.995l-5.498 9.921-5.498-9.921H200.55" stroke="#0f0"/><path d="M200.609 282.291l1.831-3.304-1.831-3.304h3.661l1.831-3.304-1.831-3.304h-3.661l1.831-3.304-1.831-3.304h3.661l1.831-3.304 1.831 3.304h3.661l1.831-3.304-1.831-3.304h3.661l1.831-3.304-1.831-3.304h-3.661l1.831-3.304-1.831-3.304h-3.661l-1.831 3.304-1.831-3.304h-3.661l1.831-3.304-1.831-3.304h3.661l1.831-3.304-1.831-3.304h-3.661l1.831-3.304-1.831-3.304h3.661l1.831-3.304 1.831 3.304h3.661l1.831-3.304-1.831-3.304h3.661l1.831-3.304 1.831 3.304h3.661l-1.831 3.304 1.831 3.304h3.661l1.831-3.304 1.831 3.304h3.661l1.831-3.304-1.831-3.304h3.661l1.831-3.304-1.831-3.304h-3.661l1.831-3.304-1.831-3.304h3.661l1.831-3.304 1.831 3.304h3.661l1.831-3.304-1.831-3.304h3.661l1.831-3.304 1.831 3.304h3.661l-1.831 3.304 1.831 3.304h3.661l1.831-3.304 1.831 3.304h3.661l-1.831 3.304 1.831 3.304h-3.661l-1.831 3.304 1.831 3.304h3.661l-1.831 3.304 1.831 3.304h3.661l1.831-3.304 1.831 3.304h3.661l1.831-3.304-1.831-3.304h3.661l1.831-3.304 1.831 3.304h3.661l-1.831 3.304 1.831 3.304h3.661l1.831-3.304 1.831 3.304h3.661l-1.831 3.304 1.831 3.304h-3.661l-1.831 3.304 1.831 3.304h3.661l-1.831 3.304 1.831 3.304h-3.661l-1.831 3.304-1.831-3.304h-3.661l-1.831 3.304 1.831 3.304h-3.661l-1.831 3.304 1.831 3.304h3.661l-1.831 3.304 1.831 3.304h3.661l1.831-3.304 1.831 3.304h3.661l-1.831 3.304 1.831 3.304h-3.661l-1.831 3.304 1.831 3.304h3.661l-1.831 3.304 1.831 3.304h-3.661l-1.831 3.304-1.831-3.304h-3.661l-1.831 3.304 1.831 3.304h-3.661l-1.831 3.304-1.831-3.304h-3.661l1.831-3.304-1.831-3.304h-3.661l-1.831 3.304-1.831-3.304h-3.661l-1.831 3.304 1.831 3.304h-3.661l-1.831 3.304 1.831 3.304h3.661l-1.831 3.304 1.831 3.304h-3.661l-1.831 3.304-1.831-3.304h-3.661l-1.831 3.304 1.831 3.304h-3.661l-1.831 3.304-1.831-3.304h-3.661l1.831-3.304-1.831-3.304h-3.661l-1.831 3.304-1.831-3.304h-3.661l1.831-3.304-1.831-3.304h3.661l1.831-3.304-1.831-3.304h-3.661l1.831-3.304-1.831-3.304h-3.661l-1.831 3.304-1.831-3.304h-3.661l-1.831 3.304 1.831 3.304h-3.661l-1.831 3.304-1.831-3.304h-3.661l1.831-3.304-1.831-3.304h-3.661l-1.831 3.304-1.831-3.304h-3.661" stroke="#000" stroke-width="1.033"/></svg>